<svg xmlns="http://www.w3.org/2000/svg" viewBox="0 0 800 500">
  <style>
    .title { font-family: 'Segoe UI', sans-serif; font-size: 22px; fill: #d4d4d4; font-weight: bold; }
    .subtitle { font-family: 'Segoe UI', sans-serif; font-size: 14px; fill: #808080; }
    .label { font-family: 'Segoe UI', sans-serif; font-size: 14px; fill: #d4d4d4; }
    .small { font-family: 'Segoe UI', sans-serif; font-size: 11px; fill: #808080; }
    .code { font-family: 'Fira Code', monospace; font-size: 11px; fill: #d4d4d4; }
    .type { font-family: 'Fira Code', monospace; font-size: 12px; fill: #4ec9b0; }
    .box { fill: #252526; stroke: #3c3c3c; stroke-width: 1; }
    .send-box { fill: #264f78; stroke: #569cd6; stroke-width: 2; }
    .sync-box { fill: #2d4a2d; stroke: #6a9955; stroke-width: 2; }
    .check { fill: #6a9955; }
    .cross { fill: #CE422B; }
  </style>
  
  <rect width="100%" height="100%" fill="#1e1e1e"/>
  
  <text x="400" y="35" text-anchor="middle" class="title">Send y Sync Traits</text>
  <text x="400" y="55" text-anchor="middle" class="subtitle">Seguridad de tipos entre threads</text>
  
  <!-- Send explanation -->
  <rect x="50" y="75" width="330" height="130" class="send-box" rx="8"/>
  <text x="215" y="100" text-anchor="middle" class="label">Send</text>
  <text x="215" y="120" text-anchor="middle" class="small">"Puedo moverme entre threads"</text>
  
  <rect x="80" y="135" width="70" height="40" class="box" rx="4"/>
  <text x="115" y="160" text-anchor="middle" class="code">Thread A</text>
  
  <text x="185" y="155" class="code">--move--</text>
  <line x1="150" y1="155" x2="245" y2="155" stroke="#569cd6" stroke-width="2" marker-end="url(#arrow)"/>
  
  <rect x="255" y="135" width="70" height="40" class="box" rx="4"/>
  <text x="290" y="160" text-anchor="middle" class="code">Thread B</text>
  
  <defs>
    <marker id="arrow" markerWidth="10" markerHeight="7" refX="9" refY="3.5" orient="auto">
      <polygon points="0 0, 10 3.5, 0 7" fill="#569cd6"/>
    </marker>
  </defs>
  
  <!-- Sync explanation -->
  <rect x="420" y="75" width="330" height="130" class="sync-box" rx="8"/>
  <text x="585" y="100" text-anchor="middle" class="label">Sync</text>
  <text x="585" y="120" text-anchor="middle" class="small">"Puedo compartirme entre threads"</text>
  
  <rect x="450" y="135" width="70" height="40" class="box" rx="4"/>
  <text x="485" y="160" text-anchor="middle" class="code">Thread A</text>
  
  <rect x="640" y="135" width="70" height="40" class="box" rx="4"/>
  <text x="675" y="160" text-anchor="middle" class="code">Thread B</text>
  
  <rect x="555" y="145" width="40" height="25" class="box" rx="4"/>
  <text x="575" y="162" text-anchor="middle" class="code">T</text>
  
  <line x1="520" y1="155" x2="555" y2="155" stroke="#6a9955" stroke-width="2"/>
  <line x1="595" y1="155" x2="640" y2="155" stroke="#6a9955" stroke-width="2"/>
  <text x="528" y="148" class="small">&amp;T</text>
  <text x="608" y="148" class="small">&amp;T</text>
  
  <!-- Types table -->
  <rect x="50" y="225" width="700" height="255" class="box" rx="4"/>
  <text x="400" y="255" text-anchor="middle" class="label">Tipos Comunes</text>
  
  <!-- Header -->
  <text x="150" y="285" text-anchor="middle" class="small">Tipo</text>
  <text x="350" y="285" text-anchor="middle" class="small">Send</text>
  <text x="480" y="285" text-anchor="middle" class="small">Sync</text>
  <text x="620" y="285" text-anchor="middle" class="small">Notas</text>
  
  <line x1="70" y1="295" x2="730" y2="295" stroke="#3c3c3c" stroke-width="1"/>
  
  <!-- Row 1: primitives -->
  <text x="150" y="325" text-anchor="middle" class="type">i32, bool, String</text>
  <text x="350" y="325" text-anchor="middle" class="check">Si</text>
  <text x="480" y="325" text-anchor="middle" class="check">Si</text>
  <text x="620" y="325" text-anchor="middle" class="small">Primitivos</text>
  
  <!-- Row 2: Arc -->
  <text x="150" y="360" text-anchor="middle" class="type">Arc&lt;T&gt;</text>
  <text x="350" y="360" text-anchor="middle" class="check">Si*</text>
  <text x="480" y="360" text-anchor="middle" class="check">Si*</text>
  <text x="620" y="360" text-anchor="middle" class="small">*si T: Send+Sync</text>
  
  <!-- Row 3: Mutex -->
  <text x="150" y="395" text-anchor="middle" class="type">Mutex&lt;T&gt;</text>
  <text x="350" y="395" text-anchor="middle" class="check">Si*</text>
  <text x="480" y="395" text-anchor="middle" class="check">Si</text>
  <text x="620" y="395" text-anchor="middle" class="small">*si T: Send</text>
  
  <!-- Row 4: Rc -->
  <text x="150" y="430" text-anchor="middle" class="type">Rc&lt;T&gt;</text>
  <text x="350" y="430" text-anchor="middle" class="cross">No</text>
  <text x="480" y="430" text-anchor="middle" class="cross">No</text>
  <text x="620" y="430" text-anchor="middle" class="small">Usar Arc</text>
  
  <!-- Row 5: RefCell -->
  <text x="150" y="465" text-anchor="middle" class="type">RefCell&lt;T&gt;</text>
  <text x="350" y="465" text-anchor="middle" class="check">Si*</text>
  <text x="480" y="465" text-anchor="middle" class="cross">No</text>
  <text x="620" y="465" text-anchor="middle" class="small">Usar Mutex</text>
</svg>