<svg xmlns="http://www.w3.org/2000/svg" viewBox="0 0 800 520">
  <style>
    .title { font-family: 'Segoe UI', sans-serif; font-size: 20px; fill: #d4d4d4; font-weight: bold; }
    .subtitle { font-family: 'Segoe UI', sans-serif; font-size: 14px; fill: #808080; }
    .label { font-family: 'Segoe UI', sans-serif; font-size: 12px; fill: #d4d4d4; }
    .code { font-family: 'Fira Code', monospace; font-size: 11px; fill: #d4d4d4; }
    .type { fill: #4ec9b0; }
    .accent { fill: #CE422B; }
    .keyword { fill: #569cd6; }
    .warn { fill: #dcdcaa; }
  </style>
  
  <rect width="100%" height="100%" fill="#1e1e1e"/>
  
  <!-- Título -->
  <text x="400" y="35" text-anchor="middle" class="title">Weak&lt;T&gt; y Ciclos de Referencia</text>
  <text x="400" y="55" text-anchor="middle" class="subtitle">Romper ciclos con referencias débiles</text>
  
  <!-- Problema: Ciclo con Rc -->
  <text x="200" y="85" text-anchor="middle" class="accent" style="font-weight:bold;">❌ PROBLEMA: CICLO</text>
  
  <rect x="40" y="100" width="320" height="180" rx="8" fill="#252526" stroke="#f14c4c"/>
  
  <!-- Nodo A -->
  <rect x="70" y="130" width="100" height="60" rx="6" fill="#2d2d2d" stroke="#CE422B"/>
  <text x="120" y="155" text-anchor="middle" class="label">Node A</text>
  <text x="120" y="175" text-anchor="middle" class="code">strong: <tspan class="accent">2</tspan></text>
  
  <!-- Nodo B -->
  <rect x="230" y="130" width="100" height="60" rx="6" fill="#2d2d2d" stroke="#CE422B"/>
  <text x="280" y="155" text-anchor="middle" class="label">Node B</text>
  <text x="280" y="175" text-anchor="middle" class="code">strong: <tspan class="accent">2</tspan></text>
  
  <!-- Flechas del ciclo -->
  <path d="M170 145 L220 145" stroke="#CE422B" stroke-width="2" fill="none" marker-end="url(#arrowRed)"/>
  <path d="M230 175 L170 175" stroke="#CE422B" stroke-width="2" fill="none" marker-end="url(#arrowRed)"/>
  
  <text x="200" y="220" text-anchor="middle" class="label" style="fill:#f14c4c;">A → B → A (ciclo)</text>
  <text x="200" y="240" text-anchor="middle" class="label" style="fill:#f14c4c;">strong_count nunca llega a 0</text>
  <text x="200" y="260" text-anchor="middle" class="warn" style="font-weight:bold;">⚠️ MEMORY LEAK</text>
  
  <defs>
    <marker id="arrowRed" markerWidth="10" markerHeight="7" refX="9" refY="3.5" orient="auto">
      <polygon points="0 0, 10 3.5, 0 7" fill="#CE422B"/>
    </marker>
    <marker id="arrowGreen" markerWidth="10" markerHeight="7" refX="9" refY="3.5" orient="auto">
      <polygon points="0 0, 10 3.5, 0 7" fill="#4ec9b0"/>
    </marker>
    <marker id="arrowDashed" markerWidth="10" markerHeight="7" refX="9" refY="3.5" orient="auto">
      <polygon points="0 0, 10 3.5, 0 7" fill="#808080"/>
    </marker>
  </defs>
  
  <!-- Solución: Weak -->
  <text x="600" y="85" text-anchor="middle" class="type" style="font-weight:bold;">✅ SOLUCIÓN: WEAK</text>
  
  <rect x="440" y="100" width="320" height="180" rx="8" fill="#252526" stroke="#4ec9b0"/>
  
  <!-- Nodo A -->
  <rect x="470" y="130" width="100" height="60" rx="6" fill="#2d2d2d" stroke="#4ec9b0"/>
  <text x="520" y="155" text-anchor="middle" class="label">Node A</text>
  <text x="520" y="175" text-anchor="middle" class="code">strong: <tspan class="type">1</tspan></text>
  
  <!-- Nodo B -->
  <rect x="630" y="130" width="100" height="60" rx="6" fill="#2d2d2d" stroke="#4ec9b0"/>
  <text x="680" y="155" text-anchor="middle" class="label">Node B</text>
  <text x="680" y="175" text-anchor="middle" class="code">strong: <tspan class="type">1</tspan></text>
  
  <!-- Flechas: strong y weak -->
  <path d="M570 145 L620 145" stroke="#4ec9b0" stroke-width="2" fill="none" marker-end="url(#arrowGreen)"/>
  <text x="595" y="138" text-anchor="middle" class="code" style="font-size:9px;">Rc</text>
  
  <path d="M630 175 L570 175" stroke="#808080" stroke-width="2" stroke-dasharray="5,3" fill="none" marker-end="url(#arrowDashed)"/>
  <text x="600" y="168" text-anchor="middle" class="code" style="font-size:9px;fill:#808080;">Weak</text>
  
  <text x="600" y="220" text-anchor="middle" class="label">A → B (strong)</text>
  <text x="600" y="240" text-anchor="middle" class="label" style="fill:#808080;">B → A (weak, no cuenta)</text>
  <text x="600" y="260" text-anchor="middle" class="type" style="font-weight:bold;">✓ Sin memory leak</text>
  
  <!-- Árbol con padre Weak -->
  <text x="400" y="305" text-anchor="middle" class="label" style="font-weight:bold;">PATRÓN: ÁRBOL CON REFERENCIA AL PADRE</text>
  
  <rect x="40" y="320" width="720" height="185" rx="8" fill="#252526" stroke="#3c3c3c"/>
  
  <!-- Root -->
  <rect x="330" y="340" width="140" height="50" rx="6" fill="#2d2d2d" stroke="#4ec9b0" stroke-width="2"/>
  <text x="400" y="365" text-anchor="middle" class="label">Root</text>
  <text x="400" y="382" text-anchor="middle" class="code" style="font-size:10px;">parent: <tspan style="fill:#808080;">Weak::new()</tspan></text>
  
  <!-- Child 1 -->
  <rect x="120" y="420" width="160" height="55" rx="6" fill="#2d2d2d" stroke="#569cd6"/>
  <text x="200" y="445" text-anchor="middle" class="label">Child 1</text>
  <text x="200" y="465" text-anchor="middle" class="code" style="font-size:10px;">parent: <tspan style="fill:#808080;">Weak&lt;Root&gt;</tspan></text>
  
  <!-- Child 2 -->
  <rect x="520" y="420" width="160" height="55" rx="6" fill="#2d2d2d" stroke="#569cd6"/>
  <text x="600" y="445" text-anchor="middle" class="label">Child 2</text>
  <text x="600" y="465" text-anchor="middle" class="code" style="font-size:10px;">parent: <tspan style="fill:#808080;">Weak&lt;Root&gt;</tspan></text>
  
  <!-- Flechas padre->hijos (strong) -->
  <path d="M350 390 L230 415" stroke="#4ec9b0" stroke-width="2" fill="none" marker-end="url(#arrowGreen)"/>
  <path d="M450 390 L570 415" stroke="#4ec9b0" stroke-width="2" fill="none" marker-end="url(#arrowGreen)"/>
  
  <!-- Flechas hijos->padre (weak) -->
  <path d="M240 420 L370 395" stroke="#808080" stroke-width="2" stroke-dasharray="5,3" fill="none" marker-end="url(#arrowDashed)"/>
  <path d="M560 420 L430 395" stroke="#808080" stroke-width="2" stroke-dasharray="5,3" fill="none" marker-end="url(#arrowDashed)"/>
  
  <!-- Leyenda -->
  <line x1="60" y1="490" x2="100" y2="490" stroke="#4ec9b0" stroke-width="2"/>
  <text x="110" y="494" class="label" style="font-size:10px;">Rc (strong)</text>
  
  <line x1="200" y1="490" x2="240" y2="490" stroke="#808080" stroke-width="2" stroke-dasharray="5,3"/>
  <text x="250" y="494" class="label" style="font-size:10px;fill:#808080;">Weak</text>
</svg>
