<svg xmlns="http://www.w3.org/2000/svg" viewBox="0 0 800 350">
  <style>
    .bg { fill: #1e1e1e; }
    .title { font-family: 'Segoe UI', sans-serif; font-size: 22px; fill: #ffffff; font-weight: bold; }
    .subtitle { font-family: 'Segoe UI', sans-serif; font-size: 14px; fill: #808080; }
    .text { font-family: 'Segoe UI', sans-serif; font-size: 12px; fill: #d4d4d4; }
    .box { fill: #252526; stroke: #3c3c3c; stroke-width: 1; }
  </style>
  
  <!-- Background -->
  <rect class="bg" width="800" height="350"/>
  
  <!-- Title -->
  <text x="400" y="35" class="title" text-anchor="middle">📈 Demanda Laboral de Rust</text>
  
  <!-- Chart area -->
  <g transform="translate(100, 60)">
    <!-- Y axis -->
    <line x1="50" y1="0" x2="50" y2="200" stroke="#3c3c3c" stroke-width="1"/>
    <text x="40" y="10" class="subtitle" text-anchor="end">Ofertas</text>
    <text x="40" y="55" class="text" text-anchor="end">3000</text>
    <text x="40" y="105" class="text" text-anchor="end">2000</text>
    <text x="40" y="155" class="text" text-anchor="end">1000</text>
    <text x="40" y="200" class="text" text-anchor="end">0</text>
    
    <!-- X axis -->
    <line x1="50" y1="200" x2="600" y2="200" stroke="#3c3c3c" stroke-width="1"/>
    
    <!-- Bars -->
    <rect x="80" y="170" width="60" height="30" fill="#A72145" rx="3"/>
    <text x="110" y="220" class="text" text-anchor="middle">2020</text>
    <text x="110" y="165" class="text" text-anchor="middle">500</text>
    
    <rect x="170" y="140" width="60" height="60" fill="#A72145" rx="3"/>
    <text x="200" y="220" class="text" text-anchor="middle">2021</text>
    <text x="200" y="135" class="text" text-anchor="middle">1000</text>
    
    <rect x="260" y="100" width="60" height="100" fill="#CE422B" rx="3"/>
    <text x="290" y="220" class="text" text-anchor="middle">2022</text>
    <text x="290" y="95" class="text" text-anchor="middle">1700</text>
    
    <rect x="350" y="60" width="60" height="140" fill="#CE422B" rx="3"/>
    <text x="380" y="220" class="text" text-anchor="middle">2023</text>
    <text x="380" y="55" class="text" text-anchor="middle">2300</text>
    
    <rect x="440" y="30" width="60" height="170" fill="#F46623" rx="3"/>
    <text x="470" y="220" class="text" text-anchor="middle">2024</text>
    <text x="470" y="25" class="text" text-anchor="middle">2800</text>
    
    <rect x="530" y="10" width="60" height="190" fill="#F46623" rx="3"/>
    <text x="560" y="220" class="text" text-anchor="middle">2025</text>
    <text x="560" y="5" fill="#CE422B" font-family="Segoe UI, sans-serif" font-size="12" text-anchor="middle" font-weight="bold">3200+</text>
  </g>
  
  <!-- Companies using Rust -->
  <g transform="translate(50, 290)">
    <rect class="box" x="0" y="0" width="700" height="40" rx="6"/>
    <text x="350" y="15" class="subtitle" text-anchor="middle">Empresas que usan Rust:</text>
    <text x="350" y="32" class="text" text-anchor="middle">Amazon • Google • Microsoft • Meta • Discord • Cloudflare • Dropbox • Mozilla</text>
  </g>
  
  <!-- Footer -->
  <text x="400" y="345" font-family="Segoe UI, sans-serif" font-size="10" fill="#808080" text-anchor="middle">Fuente: Indeed, LinkedIn, Stack Overflow Jobs • Bootcamp Rust Semana 01</text>
</svg>