<svg xmlns="http://www.w3.org/2000/svg" viewBox="0 0 800 450">
  <style>
    .title { font-family: 'Segoe UI', sans-serif; font-size: 24px; fill: #d4d4d4; font-weight: bold; }
    .subtitle { font-family: 'Segoe UI', sans-serif; font-size: 16px; fill: #808080; }
    .label { font-family: 'Segoe UI', sans-serif; font-size: 14px; fill: #d4d4d4; }
    .small { font-family: 'Segoe UI', sans-serif; font-size: 12px; fill: #808080; }
    .code { font-family: 'Fira Code', monospace; font-size: 12px; fill: #d4d4d4; }
    .type { font-family: 'Fira Code', monospace; font-size: 14px; fill: #4ec9b0; }
    .box { fill: #252526; stroke: #3c3c3c; stroke-width: 1; }
    .send-box { fill: #264f78; stroke: #569cd6; stroke-width: 2; }
    .sync-box { fill: #2d4a2d; stroke: #6a9955; stroke-width: 2; }
    .none-box { fill: #4d3319; stroke: #CE422B; stroke-width: 2; }
    .check { fill: #6a9955; }
    .cross { fill: #CE422B; }
  </style>
  
  <rect width="100%" height="100%" fill="#1e1e1e"/>
  
  <text x="400" y="35" text-anchor="middle" class="title">Send y Sync Traits</text>
  <text x="400" y="60" text-anchor="middle" class="subtitle">Seguridad de tipos entre threads</text>
  
  <!-- Send explanation -->
  <rect x="40" y="85" width="350" height="140" class="send-box" rx="8"/>
  <text x="215" y="115" text-anchor="middle" class="label">Send</text>
  <text x="215" y="140" text-anchor="middle" class="small">"Puedo moverme entre threads"</text>
  
  <rect x="70" y="155" width="80" height="50" class="box" rx="4"/>
  <text x="110" y="185" text-anchor="middle" class="code">Thread A</text>
  
  <text x="175" y="180" class="code">--move--</text>
  <line x1="150" y1="180" x2="250" y2="180" stroke="#569cd6" stroke-width="2" marker-end="url(#arrow)"/>
  
  <rect x="260" y="155" width="80" height="50" class="box" rx="4"/>
  <text x="300" y="185" text-anchor="middle" class="code">Thread B</text>
  
  <defs>
    <marker id="arrow" markerWidth="10" markerHeight="7" refX="9" refY="3.5" orient="auto">
      <polygon points="0 0, 10 3.5, 0 7" fill="#569cd6"/>
    </marker>
  </defs>
  
  <!-- Sync explanation -->
  <rect x="410" y="85" width="350" height="140" class="sync-box" rx="8"/>
  <text x="585" y="115" text-anchor="middle" class="label">Sync</text>
  <text x="585" y="140" text-anchor="middle" class="small">"Puedo compartirme entre threads"</text>
  
  <rect x="440" y="155" width="80" height="50" class="box" rx="4"/>
  <text x="480" y="185" text-anchor="middle" class="code">Thread A</text>
  
  <rect x="640" y="155" width="80" height="50" class="box" rx="4"/>
  <text x="680" y="185" text-anchor="middle" class="code">Thread B</text>
  
  <rect x="545" y="170" width="50" height="25" class="box" rx="4"/>
  <text x="570" y="187" text-anchor="middle" class="code">T</text>
  
  <line x1="520" y1="180" x2="545" y2="180" stroke="#6a9955" stroke-width="2"/>
  <line x1="595" y1="180" x2="640" y2="180" stroke="#6a9955" stroke-width="2"/>
  <text x="505" y="175" class="small">&amp;T</text>
  <text x="610" y="175" class="small">&amp;T</text>
  
  <!-- Types table -->
  <rect x="40" y="245" width="720" height="185" class="box" rx="4"/>
  <text x="400" y="275" text-anchor="middle" class="label">Tipos Comunes</text>
  
  <!-- Header -->
  <text x="150" y="305" text-anchor="middle" class="small">Tipo</text>
  <text x="350" y="305" text-anchor="middle" class="small">Send</text>
  <text x="500" y="305" text-anchor="middle" class="small">Sync</text>
  <text x="650" y="305" text-anchor="middle" class="small">Notas</text>
  
  <line x1="60" y1="315" x2="740" y2="315" stroke="#3c3c3c" stroke-width="1"/>
  
  <!-- Row 1: primitives -->
  <text x="150" y="340" text-anchor="middle" class="type">i32, bool, String</text>
  <text x="350" y="340" text-anchor="middle" class="check">Yes</text>
  <text x="500" y="340" text-anchor="middle" class="check">Yes</text>
  <text x="650" y="340" text-anchor="middle" class="small">Primitivos</text>
  
  <!-- Row 2: Arc -->
  <text x="150" y="365" text-anchor="middle" class="type">Arc&lt;T&gt;</text>
  <text x="350" y="365" text-anchor="middle" class="check">Yes*</text>
  <text x="500" y="365" text-anchor="middle" class="check">Yes*</text>
  <text x="650" y="365" text-anchor="middle" class="small">*si T: Send+Sync</text>
  
  <!-- Row 3: Mutex -->
  <text x="150" y="390" text-anchor="middle" class="type">Mutex&lt;T&gt;</text>
  <text x="350" y="390" text-anchor="middle" class="check">Yes*</text>
  <text x="500" y="390" text-anchor="middle" class="check">Yes</text>
  <text x="650" y="390" text-anchor="middle" class="small">*si T: Send</text>
  
  <!-- Row 4: Rc -->
  <text x="150" y="415" text-anchor="middle" class="type">Rc&lt;T&gt;</text>
  <text x="350" y="415" text-anchor="middle" class="cross">No</text>
  <text x="500" y="415" text-anchor="middle" class="cross">No</text>
  <text x="650" y="415" text-anchor="middle" class="small">Usar Arc</text>
  
  <!-- Row 5: RefCell -->
  <text x="150" y="440" text-anchor="middle" class="type">RefCell&lt;T&gt;</text>
  <text x="350" y="440" text-anchor="middle" class="check">Yes*</text>
  <text x="500" y="440" text-anchor="middle" class="cross">No</text>
  <text x="650" y="440" text-anchor="middle" class="small">Usar Mutex</text>
</svg>
